<svg width="40" height="40" viewBox="0 0 40 40" fill="none" xmlns="http://www.w3.org/2000/svg">
<path d="M25.5296 5.59111C26.5023 5.97829 27.1901 6.67616 27.8067 7.69927L28.0099 8.05237L28.7636 9.49762L28.7884 9.53798L28.8109 9.57311L28.8749 9.66062C29.2183 10.0348 29.793 10.2608 30.1723 10.2608C33.6469 10.2608 36.4849 12.9896 36.6589 16.4201L36.6673 16.7542V26.4125C36.6673 30.8658 33.1503 34.5 28.7432 34.6882L28.384 34.6958H11.6173C7.16288 34.6958 3.52977 31.1794 3.34164 26.7718L3.33398 26.4125V16.7542C3.33398 13.1685 6.24228 10.2608 9.82898 10.2608C10.2069 10.2608 10.7824 10.0345 11.1264 9.66062L11.1382 9.64665L11.1531 9.62723L11.2388 9.49576L11.9903 8.05283C12.6603 6.83529 13.389 6.02138 14.4705 5.59096C16.4521 4.80299 23.5495 4.80299 25.5296 5.59111ZM15.3946 7.91389C15.0256 8.06075 14.6915 8.40069 14.335 8.99001L14.1807 9.25801L13.5392 10.4982L13.3814 10.7839C13.2496 11.0031 13.1178 11.1881 12.9672 11.3522C12.1999 12.1862 11.0981 12.668 10.1187 12.7487L9.82898 12.7608L9.55549 12.77C7.56728 12.9045 5.97767 14.4937 5.8432 16.4808L5.83398 16.7542V26.4125C5.83398 29.4996 8.25355 32.0225 11.3 32.1873L11.6173 32.1958H28.384C31.4705 32.1958 33.994 29.7753 34.1588 26.7297L34.1673 26.4125V16.7542C34.1673 14.6412 32.5244 12.9106 30.4458 12.77L30.1723 12.7608L29.8821 12.7487C28.9012 12.668 27.7995 12.1861 27.0331 11.351C26.8845 11.1892 26.7534 11.0055 26.6224 10.7881L26.5909 10.7342L26.5534 10.6673L26.3599 10.3044L25.8201 9.25847C25.4555 8.59662 25.1217 8.19213 24.7613 7.98885L24.6051 7.91389L24.4062 7.84778C22.6909 7.36297 16.7247 7.38501 15.3946 7.91389ZM20.0002 15.332C23.6172 15.332 26.5485 18.2633 26.5485 21.8803C26.5485 25.4974 23.6172 28.4287 20.0002 28.4287C16.3831 28.4287 13.4518 25.4974 13.4518 21.8803C13.4518 18.2633 16.3831 15.332 20.0002 15.332ZM20.0002 17.832C17.7638 17.832 15.9518 19.644 15.9518 21.8803C15.9518 24.1166 17.7638 25.9287 20.0002 25.9287C22.2365 25.9287 24.0485 24.1166 24.0485 21.8803C24.0485 19.644 22.2365 17.832 20.0002 17.832ZM29.1745 14.167C30.095 14.167 30.8411 14.9132 30.8411 15.8337C30.8411 16.6884 30.1978 17.3928 29.3689 17.4891L29.1745 17.5003C28.239 17.5003 27.4928 16.7541 27.4928 15.8337C27.4928 14.9789 28.1362 14.2745 28.9651 14.1782L29.1745 14.167Z" fill="#333B42"/>
</svg>
