<svg width="21" height="20" viewBox="0 0 21 20" fill="none" xmlns="http://www.w3.org/2000/svg">
<path fill-rule="evenodd" clip-rule="evenodd" d="M2.89771 2.09251L2.81317 2.08367C2.50551 2.07242 2.22924 2.28999 2.17527 2.60177L2.16643 2.68631C2.15519 2.99396 2.37275 3.27024 2.68453 3.3242L3.94203 3.54169L4.70414 12.6215L4.71991 12.7579C4.87325 13.7933 5.76379 14.5717 6.82445 14.5717H15.9178L16.0547 14.5673C17.0517 14.5037 17.8783 13.7497 18.0238 12.7482L18.8147 7.28286L18.8283 7.15733C18.9011 6.1581 18.1095 5.29085 17.0903 5.29085H5.34287L5.14726 2.95608L5.13252 2.8637C5.07548 2.62343 4.88016 2.43563 4.63104 2.39251L2.89771 2.09251ZM6.72784 13.3164C6.31511 13.2712 5.98504 12.9398 5.94979 12.5172L5.44787 6.54085H17.0903L17.1637 6.54626C17.4269 6.58537 17.617 6.83143 17.5776 7.1039L16.7867 12.5688L16.7669 12.6666C16.6666 13.0487 16.3204 13.3217 15.9178 13.3217H6.82445L6.72784 13.3164ZM5.42312 17.1544C5.42312 16.4577 5.98785 15.8919 6.68478 15.8919C7.38163 15.8919 7.94728 16.4576 7.94728 17.1544C7.94728 17.8514 7.38154 18.4161 6.68478 18.4161C5.98794 18.4161 5.42312 17.8513 5.42312 17.1544ZM14.7993 17.1544C14.7993 16.4576 15.3649 15.8919 16.0618 15.8919C16.7586 15.8919 17.3243 16.4576 17.3243 17.1544C17.3243 17.8514 16.7585 18.4161 16.0618 18.4161C15.365 18.4161 14.7993 17.8514 14.7993 17.1544ZM15.2065 8.99585C15.2065 8.65068 14.9267 8.37085 14.5815 8.37085H12.2707L12.1859 8.37656C11.8808 8.41795 11.6457 8.67944 11.6457 8.99585C11.6457 9.34103 11.9255 9.62085 12.2707 9.62085H14.5815L14.6663 9.61515C14.9714 9.57376 15.2065 9.31227 15.2065 8.99585Z" fill="#1C2126"/>
</svg>
