<svg width="21" height="20" viewBox="0 0 21 20" fill="none" xmlns="http://www.w3.org/2000/svg">
<path d="M6.68892 15.7564C7.38005 15.7564 7.94627 16.3347 7.94627 17.049C7.94627 17.7549 7.38005 18.3332 6.68892 18.3332C5.98946 18.3332 5.42324 17.7549 5.42324 17.049C5.42324 16.3347 5.98946 15.7564 6.68892 15.7564ZM16.0566 15.7564C16.7477 15.7564 17.314 16.3347 17.314 17.049C17.314 17.7549 16.7477 18.3332 16.0566 18.3332C15.3572 18.3332 14.7909 17.7549 14.7909 17.049C14.7909 16.3347 15.3572 15.7564 16.0566 15.7564ZM2.81551 1.6666L2.90037 1.67379L4.88632 1.97909C5.16944 2.03096 5.37761 2.26823 5.40259 2.55738L5.5608 4.46233C5.58578 4.73531 5.80228 4.93941 6.06874 4.93941H17.3141C17.8221 4.93941 18.1551 5.118 18.4882 5.5092C18.8213 5.90039 18.8796 6.46167 18.8046 6.97108L18.0136 12.5499C17.8637 13.6222 16.9644 14.4123 15.9069 14.4123H6.82232C5.71485 14.4123 4.79889 13.5457 4.7073 12.4231L3.94123 3.15267L2.68387 2.93156C2.3508 2.87203 2.11765 2.54037 2.17594 2.2002C2.23422 1.85237 2.55897 1.62191 2.90037 1.67379L2.81551 1.6666ZM14.5746 8.08513H12.2681C11.9183 8.08513 11.6436 8.36577 11.6436 8.72295C11.6436 9.07163 11.9183 9.36077 12.2681 9.36077H14.5746C14.9243 9.36077 15.1991 9.07163 15.1991 8.72295C15.1991 8.36577 14.9243 8.08513 14.5746 8.08513Z" fill="#F70000"/>
</svg>
