<svg width="14" height="14" viewBox="0 0 14 14" fill="none" xmlns="http://www.w3.org/2000/svg">
<path fill-rule="evenodd" clip-rule="evenodd" d="M3.32175 0.876942C0.874019 1.665 -0.217749 4.33721 0.602888 6.88643C1.01932 8.08682 1.69657 9.16572 2.58637 10.0509C3.80702 11.2364 5.14803 12.2797 6.58959 13.1661L6.7533 13.2642C6.91008 13.358 7.10621 13.3564 7.26139 13.2599L7.41422 13.1649C8.8538 12.2797 10.1948 11.2364 11.4113 10.055C12.3053 9.16572 12.9825 8.08682 13.3955 6.89685C14.2191 4.33876 13.1228 1.66528 10.6743 0.876981L10.4972 0.824236C9.3746 0.515473 8.18166 0.667615 7.17602 1.23698L6.99727 1.34294L6.82167 1.23757C5.76096 0.635708 4.49327 0.500102 3.32175 0.876942ZM6.58277 2.23626L6.71393 2.33033C6.88682 2.45416 7.1201 2.45169 7.29034 2.32425C8.17702 1.66046 9.32452 1.4673 10.3757 1.80454C12.2728 2.41531 13.1361 4.52072 12.4706 6.58807C12.1096 7.62791 11.5121 8.5798 10.7274 9.36042L10.3754 9.69482C9.42701 10.5762 8.40138 11.3741 7.31242 12.0771L7.00052 12.2733L7.0957 12.3333C5.72 11.4873 4.43551 10.488 3.27022 9.35631C2.48971 8.5798 1.89219 7.62791 1.52772 6.57765C0.865059 4.51875 1.72465 2.41483 3.6207 1.80439C4.62188 1.48234 5.71338 1.64201 6.58277 2.23626ZM9.57985 3.32257C9.32333 3.2407 9.04896 3.3821 8.96702 3.63841C8.88508 3.89471 9.0266 4.16886 9.28311 4.25073C9.78728 4.41165 10.1467 4.86544 10.1918 5.40072C10.2143 5.66883 10.4501 5.86791 10.7185 5.84538C10.9868 5.82284 11.186 5.58721 11.1635 5.3191C11.0855 4.39247 10.4608 3.60375 9.57985 3.32257Z" fill="#333B42"/>
</svg>
