<svg width="14" height="14" viewBox="0 0 14 14" fill="none" xmlns="http://www.w3.org/2000/svg">
<path d="M4.51969 0.666851C4.93969 0.679624 5.34635 0.752958 5.74035 0.886958H5.77969C5.80635 0.899624 5.82635 0.913624 5.83969 0.926291C5.98702 0.973624 6.12635 1.02696 6.25969 1.10029L6.51302 1.21362C6.61302 1.26696 6.73302 1.36629 6.79969 1.40696C6.86635 1.44629 6.93969 1.48696 6.99969 1.53296C7.74035 0.966958 8.63969 0.660291 9.56635 0.666851C9.98702 0.666851 10.407 0.726291 10.8064 0.860291C13.267 1.66029 14.1537 4.36029 13.413 6.72029C12.993 7.92629 12.3064 9.02696 11.407 9.92629C10.1197 11.173 8.70702 12.2796 7.18635 13.233L7.01969 13.3336L6.84635 13.2263C5.32035 12.2796 3.89969 11.173 2.60035 9.91962C1.70702 9.02029 1.01969 7.92629 0.593019 6.72029C-0.160315 4.36029 0.726352 1.66029 3.21369 0.846291C3.40702 0.779624 3.60635 0.732958 3.80635 0.706958H3.88635C4.07369 0.679624 4.25969 0.666851 4.44635 0.666851H4.51969ZM10.4597 2.77362C10.1864 2.67962 9.88635 2.82696 9.78635 3.10696C9.69302 3.38696 9.83969 3.69362 10.1197 3.79296C10.547 3.95296 10.833 4.37362 10.833 4.83962V4.86029C10.8204 5.01296 10.8664 5.16029 10.9597 5.27362C11.053 5.38696 11.193 5.45296 11.3397 5.46696C11.613 5.45962 11.8464 5.24029 11.8664 4.95962V4.88029C11.8864 3.94629 11.3204 3.10029 10.4597 2.77362Z" fill="#F70000"/>
</svg>
