<svg width="21" height="20" viewBox="0 0 21 20" fill="none" xmlns="http://www.w3.org/2000/svg">
<path fill-rule="evenodd" clip-rule="evenodd" d="M11.9312 12.7426C12.9345 12.7426 13.7512 13.5535 13.7512 14.5501V17.1135C13.7512 17.3276 13.9228 17.4993 14.1428 17.5043H15.7312C16.9828 17.5043 18.0003 16.4993 18.0003 15.2643V7.99429C17.9945 7.56929 17.792 7.16929 17.4445 6.90346L11.9503 2.52179C11.2128 1.93763 10.1812 1.93763 9.44116 2.52346L3.98449 6.90179C3.62366 7.17596 3.42116 7.57596 3.41699 8.00846V15.2643C3.41699 16.4993 4.43449 17.5043 5.68616 17.5043H7.28949C7.51533 17.5043 7.69866 17.3251 7.69866 17.1051C7.69866 17.0568 7.70449 17.0085 7.71449 16.9626V14.5501C7.71449 13.5593 8.52616 12.7493 9.52199 12.7426H11.9312ZM15.7312 18.7543H14.1278C13.2095 18.7326 12.5012 18.0118 12.5012 17.1135V14.5501C12.5012 14.2426 12.2453 13.9926 11.9312 13.9926H9.52616C9.21866 13.9943 8.96449 14.2451 8.96449 14.5501V17.1051C8.96449 17.1676 8.95616 17.2276 8.93866 17.2843C8.84866 18.1093 8.14366 18.7543 7.28949 18.7543H5.68616C3.74533 18.7543 2.16699 17.1885 2.16699 15.2643V8.00263C2.17533 7.17429 2.55699 6.41596 3.21616 5.91679L8.66199 1.54596C9.86116 0.59596 11.532 0.59596 12.7287 1.54429L18.2137 5.91929C18.8578 6.41013 19.2395 7.16679 19.2503 7.98513V15.2643C19.2503 17.1885 17.672 18.7543 15.7312 18.7543Z" fill="#1C2126"/>
</svg>
