<svg width="23" height="26" viewBox="0 0 23 26" fill="none" xmlns="http://www.w3.org/2000/svg">
<path fill-rule="evenodd" clip-rule="evenodd" d="M9.04493 22.4571C9.64926 23.1302 10.4251 23.5001 11.2301 23.5001H11.2313C12.0398 23.5001 12.8191 23.1302 13.4246 22.4559C13.7489 22.0977 14.3019 22.0686 14.6601 22.3917C15.0194 22.7149 15.0486 23.2691 14.7254 23.6272C13.7828 24.6737 12.5426 25.2501 11.2313 25.2501H11.2289C9.9211 25.2489 8.68326 24.6726 7.7441 23.6261C7.42093 23.2679 7.4501 22.7137 7.80943 22.3917C8.16876 22.0674 8.72176 22.0966 9.04493 22.4571ZM11.2882 0.166748C16.474 0.166748 19.9577 4.20575 19.9577 7.97758C19.9577 9.91775 20.4512 10.7402 20.975 11.6129C21.493 12.4739 22.0799 13.4516 22.0799 15.2996C21.6727 20.0211 16.7435 20.4061 11.2882 20.4061C5.83286 20.4061 0.902531 20.0211 0.500015 15.3742C0.496531 13.4516 1.08336 12.4739 1.60136 11.6129L1.78423 11.3051C2.23448 10.5312 2.6187 9.68949 2.6187 7.97758C2.6187 4.20575 6.10236 0.166748 11.2882 0.166748ZM11.2882 1.91675C7.2107 1.91675 4.3687 5.11108 4.3687 7.97758C4.3687 10.4031 3.69553 11.5242 3.10053 12.5136C2.62336 13.3081 2.24653 13.9357 2.24653 15.2996C2.44136 17.4999 3.89386 18.6561 11.2882 18.6561C18.6417 18.6561 20.1397 17.4486 20.3334 15.2237C20.3299 13.9357 19.953 13.3081 19.4759 12.5136C18.8809 11.5242 18.2077 10.4031 18.2077 7.97758C18.2077 5.11108 15.3657 1.91675 11.2882 1.91675Z" fill="#1C2126"/>
</svg>
