<svg width="21" height="20" viewBox="0 0 21 20" fill="none" xmlns="http://www.w3.org/2000/svg">
<path fill-rule="evenodd" clip-rule="evenodd" d="M10.5033 1.66675C8.05823 1.66675 6.07615 3.65728 6.07615 6.11273C6.07615 8.56817 8.05823 10.5587 10.5033 10.5587C12.9483 10.5587 14.9304 8.56817 14.9304 6.11273C14.9304 3.65728 12.9483 1.66675 10.5033 1.66675ZM10.5033 2.87314C12.2848 2.87314 13.7291 4.32355 13.7291 6.11273C13.7291 7.9019 12.2848 9.35231 10.5033 9.35231C8.72167 9.35231 7.27742 7.9019 7.27742 6.11273C7.27742 4.32355 8.72167 2.87314 10.5033 2.87314ZM8.69138 12.3508C8.04328 12.3958 7.38818 12.4883 6.74201 12.6268C5.49482 12.8837 4.49705 13.397 4.07237 14.25C3.9122 14.5836 3.83167 14.9407 3.83302 15.3023C3.83254 15.6613 3.91242 16.019 4.06686 16.3461C4.47463 17.1893 5.35618 17.6665 6.54654 17.931L6.75978 17.9755C7.38841 18.1173 8.04371 18.2128 8.7034 18.2576C8.75958 18.2741 8.89349 18.2894 9.03964 18.2969L9.15986 18.3014C9.22167 18.3028 9.29182 18.3032 9.39635 18.3032C10.3445 18.3553 11.3275 18.3401 12.3059 18.2568C12.8273 18.2212 13.3523 18.153 13.8728 18.0531L14.2622 17.9722C15.5476 17.7186 16.5102 17.2364 16.9318 16.3471C17.2445 15.6868 17.2445 14.9207 16.932 14.2607C16.5114 13.3736 15.5611 12.8954 14.2525 12.6258C13.7391 12.5162 13.2173 12.4351 12.6919 12.3833L12.3078 12.3508C11.1046 12.2447 9.89453 12.2447 8.69138 12.3508ZM12.2026 13.5526L12.2132 13.5534C12.8162 13.5959 13.4156 13.6805 14.0069 13.8067C14.9789 14.007 15.6386 14.339 15.8473 14.7791C16.0044 15.1109 16.0044 15.4966 15.8471 15.8287C15.6521 16.24 15.0597 16.5577 14.2034 16.7518L14.0159 16.7915C13.413 16.9261 12.8156 17.0128 12.2143 17.054C11.2813 17.1334 10.3538 17.1477 9.42864 17.0976L9.10064 17.092C9.00959 17.0874 8.93285 17.0786 8.86173 17.0643C8.29861 17.0218 7.79189 16.9546 7.29989 16.857L7.00613 16.7948C6.03109 16.6037 5.36563 16.2703 5.14987 15.8242C5.07437 15.6642 5.03404 15.4837 5.03429 15.3009C5.03361 15.1191 5.07341 14.9426 5.15066 14.7816C5.36044 14.3604 6.06567 13.9976 6.98805 13.8076C7.58362 13.68 8.18268 13.5954 8.78545 13.5535C9.9297 13.4526 11.0694 13.4526 12.2026 13.5526Z" fill="#1C2126"/>
</svg>
